
<svg xmlns="http://www.w3.org/2000/svg" version="1.1" xmlns:xlink="http://www.w3.org/1999/xlink" preserveAspectRatio="none" x="0px" y="0px" width="140px" height="140px" viewBox="0 0 140 140">
<defs>
<g id="Layer0_0_FILL">
<path fill="#FFFFFF" stroke="none" d="
M 129.2 20.15
Q 138.7466796875 7.1400390625 132.85 6.6 126.9982421875 6.107421875 120 11.8 113.0580078125 17.5349609375 95 39.3 76.9892578125 61.119921875 70.6 67 46.95 44.95 31.65 30.1 11.6552734375 10.6537109375 9.7 9.7 7.787890625 8.7419921875 29.3 34 50.865234375 59.259375 64 72.95 45.421875 94.1701171875 28.1 111.4 10.8337890625 128.63515625 8.55 132.15 6.3041015625 135.653515625 26.45 120.15 46.605078125 104.7052734375 71.95 80.7 98.3904296875 108.8283203125 114.65 123.3 130.9572265625 137.7578125 132.7 134.1 134.4453125 130.4556640625 129.05 120.85 123.6564453125 111.2375 102.2 93.65 80.792578125 76.0650390625 78.6 73.55 80.47734375 70.9837890625 100.1 52.05 119.71328125 33.1607421875 129.2 20.15 Z"/>
</g>
</defs>

<g transform="matrix( 1, 0, 0, 1, 0,0) ">
<use xlink:href="#Layer0_0_FILL"/>
</g>
</svg>
