
<svg xmlns="http://www.w3.org/2000/svg" version="1.1" xmlns:xlink="http://www.w3.org/1999/xlink" preserveAspectRatio="none" x="0px" y="0px" width="140px" height="140px" viewBox="0 0 140 140">
<defs>
<g id="Layer0_0_FILL">
<path fill="#FFFFFF" stroke="none" d="
M 122.1 24.3
Q 137.2 8.45 132.1 7.25 127 6.1 122.05 12.6 117.05 19.05 84.05 53.95 77.2 61.2 71 67.8 46.95 44.95 31.65 30.1 11.65 10.65 8.25 7.7 4.9 4.8 22.65 24.2 39.55 42.7 67.45 71.5 45.9 94.2 31.6 108.9 12.15 128.9 9.2 132.3 6.3 135.65 25.7 117.9 43.55 101.65 70.95 75.15 100.45 105.65 116.25 120.55 132.1 135.7 133.3 130.6 134.45 125.5 127.95 120.55 121.5 115.55 86.55 82.55 80.45 76.75 74.8 71.4 75.45 70.75 76.05 70.15 107 40.25 122.1 24.3 Z"/>
</g>
</defs>

<g transform="matrix( 1, 0, 0, 1, 0,0) ">
<use xlink:href="#Layer0_0_FILL"/>
</g>
</svg>
