
<svg xmlns="http://www.w3.org/2000/svg" version="1.1" xmlns:xlink="http://www.w3.org/1999/xlink" preserveAspectRatio="none" x="0px" y="0px" width="500px" height="500px" viewBox="0 0 500 500">
<defs>
<image id="homeButtonIdle_png" x="0" y="0" width="60" height="97" xlink:href="./images/homeButtonIdle_png.png"/>

<g id="Layer1_0_FILL">
<path fill="#FFFFFF" stroke="none" d="
M 357.05 439.2
L 383.65 439.2 384.75 382.3 252.65 382.3 357.05 439.2 Z"/>
</g>

<g id="Layer0_0_FILL">
<path fill="#FFFFFF" stroke="none" d="
M 448 144.2
Q 448 111.05 424.55 87.6 401.15 64.2 368 64.2
L 127.85 64.2
Q 94.7 64.2 71.25 87.6 47.85 111.05 47.85 144.2
L 47.85 300.05
Q 47.85 333.2 71.25 356.6 94.7 380.05 127.85 380.05
L 248.4 380.05 235.15 373 248.4 380.05 250.45 380.05 250.05 380.7
Q 250.4 380.7 251 381.1 251.6 381.55 251.85 381.7
L 251.85 381.75 252.65 382.25 253.7 382.95
Q 253.8 382.95 254.25 383.25 254.65 383.35 254.7 383.5 254.95 383.6 255.1 383.45
L 255.4 382.95 269.35 382.9
Q 269.85 382.9 275.05 382.6 311.4408203125 382.453125 347.8 382.6 347.4796875 383.166015625 347.15 384
L 353.9 383.85 353.5 384.55 378.95 384.6
Q 379.5 384.6 379.75 384.45 379.95 384.35 380.25 383.95 380.46953125 383.609375 380.65 383.25 380.6853515625 383.50078125 380.7 383.75
L 380.9 383.8 381.4 383
Q 381.45 383.61953125 381.45 384.9
L 381.75 384.95
Q 381.9 384.55 382.7 383.35 382.7623046875 383.2541015625 382.8 383.15 382.76875 384.3671875 382.85 386.4
L 383.1 386.45
Q 384.3 384.8 384.6 383.85 384.7916015625 383.23671875 384.75 382.3
L 384.75 382.2
Q 384.7703125 381.9755859375 384.75 381.7 384.65 380.1 384.75 379.55
L 384.5 379.45
Q 384.4681640625 379.4697265625 384.4 379.5 384.653125 379.1423828125 384.8 378.85 384.96171875 378.576953125 385.05 378.35 407.410546875 373.776171875 424.55 356.6 448 333.2 448 300.05
L 448 144.2
M 384.8 375.9
L 384.8 375.65 384.8 375.9
M 258 380.4
L 258.15 380.2
Q 258.0728515625 380.1228515625 258 380.05
L 273.85 380.05
Q 273.445703125 380.0734375 273.05 380.1
L 258 380.4 Z"/>
</g>

<path id="Layer1_0_1_STROKES" stroke="#FFFFFF" stroke-width="1" stroke-linejoin="round" stroke-linecap="round" fill="none" d="
M 252.65 382.3
L 357.05 439.2 383.65 439.2 384.775 382.3"/>

<path id="Layer0_0_1_STROKES" stroke="#FFFFFF" stroke-width="1" stroke-linejoin="round" stroke-linecap="round" fill="none" d="
M 248.425 380.05
L 127.85 380.05
Q 94.7 380.05 71.25 356.6 47.85 333.2 47.85 300.05
L 47.85 144.2
Q 47.85 111.05 71.25 87.6 94.7 64.2 127.85 64.2
L 368 64.2
Q 401.15 64.2 424.55 87.6 448 111.05 448 144.2
L 448 300.05
Q 448 333.2 424.55 356.6 407.410546875 373.776171875 385.05 378.375
M 384.8 378.875
L 384.775 382.225 384.775 382.3
M 252.675 382.275
L 248.425 380.05 235.15 373
M 384.8 375.925
L 384.8 375.65
M 273.85 380.05
L 258 380.05
M 250.45 380.05
L 248.425 380.05"/>
</defs>

<g transform="matrix( 1, 0, 0, 1, 0,0) ">
<use xlink:href="#Layer1_0_FILL"/>

<use xlink:href="#Layer1_0_1_STROKES"/>
</g>

<g transform="matrix( 1, 0, 0, 1, 231,244) ">
<use xlink:href="#homeButtonIdle_png"/>
</g>

<g transform="matrix( 1, 0, 0, 1, 0,0) ">
<use xlink:href="#Layer0_0_FILL"/>

<use xlink:href="#Layer0_0_1_STROKES"/>
</g>
</svg>
