
<svg xmlns="http://www.w3.org/2000/svg" version="1.1" xmlns:xlink="http://www.w3.org/1999/xlink" preserveAspectRatio="none" x="0px" y="0px" width="500px" height="500px" viewBox="0 0 500 500">
<defs>
<image id="Chat_Bubble_Logo_Minimal_White_Transparent_png" x="0" y="0" width="100" height="100" xlink:href="./images/Chat_Bubble_Logo_Minimal_White_Transparent_png.png"/>

<g id="Layer1_0_FILL">
<path fill="#FFFFFF" stroke="none" d="
M 353.15 288.2
Q 351.35 287.3 350.3 287.4 348.55 287.65 346.95 290.35
L 339.4 302.5
Q 338.1 301.75 337 301.2 329.6 297.45 319.3 295.85 312.95 294.9 300.6 294.35
L 291.45 309.1
Q 286.6 306.35 282.45 304.05 268.25 296.15 252.05 287.95 249.8 286.8 248.5 287.25 247.45 287.65 246.45 289.35
L 240.65 298.6
Q 238.75 296.55 236.65 295.3 233.5 293.5 230.5 293.9
L 210.6 325.65
Q 213.65 327.8 215.1 328.95 216.85 330.4 218.1 331.85 217.1 333.8 216.75 335.25 216.1 338.15 216.9 341.85 217.4 344.2 218.95 348.25 224.5 362.6 228.95 373.3 229 373.4 229.05 373.55
L 227.6 375.85
Q 226.5 377.7 226.1 378.55 225.4 380.15 225.35 381.5 225.3 383.45 226.9 386.75 230.85 394.85 236.15 402.7 243.35 413.25 250.55 417.9 253.1 419.55 256.55 421.05 258.6 421.95 262.85 423.55 267.65 425.35 270.1 425.95 272.5 426.55 276.15 426.9 276.35 427 276.55 427.1 285.65 432.05 295.7 433.15 302.9 434 310.05 432.85 316.55 431.8 321.9 429.55 323.45 428.95 324.85 428.25
L 326.25 429.35
Q 327.4 430.2 327.9 430.35 328.55 430.6 329.7 430.5 331.1 430.45 331.5 430.5
L 337.75 420.5
Q 339.6 420.6 340.55 420.05 341.55 419.5 342.65 417.65
L 347.2 410.4
Q 347.5 410.3 347.7 410.2 348.35 409.9 349.15 408.6
L 354.05 400.8
Q 354.4 401.25 354.85 401.75
L 357.4 404.6 361.25 404.85 380.55 373.8
Q 381.2 372.75 381.05 372.2 380.95 371.5 379.75 370.75 378.55 369.95 377.35 368.55 376.9 368 375.65 366.35 376.35 366.1 376.95 365.65 378 364.9 379.6 362.4
L 397.55 333.3
Q 393.35 330.65 389.05 328.15
L 397.5 314.6
Q 398.1 313.7 398.05 313.15 398 312.3 396.9 311.7 396.2 311.25 394.6 310.6 393 309.95 392.3 309.45
L 390.4 307.9
Q 389.25 307.1 387.6 306.6 384.95 305.8 382.15 305.7 379.85 301.4 377.7 299.7 376.3 298.6 373.1 297.2
L 370.65 296.2
Q 358.85 291.1 353.15 288.2 Z"/>
</g>

<g id="Layer1_1_FILL">
<path fill="#000000" fill-opacity="0.00392156862745098" stroke="none" d="
M 236.7 66.45
Q 222.55 61.05 206.05 61.05 170.45 61.05 145.15 86.15 120.1 111.4 120.1 147 120.1 182.65 145.15 207.7 148.95 211.45 152.9 214.65 167.05 220.05 183.55 220.05 194.7 220.05 204.65 217.65 204.05 212.25 204.05 206.7 204.05 170.7 229.5 145.2 246.8 127.9 268.9 122.55 265.35 94.3 244.25 73.2 240.65 69.6 236.7 66.45
M 206.05 61.05
Q 222.55 61.05 236.7 66.45 214 48.15 183.55 48.15 147.95 48.15 122.7 73.2 97.6 98.45 97.6 134.1 97.6 169.7 122.7 194.75 136.2 208.3 152.9 214.65 148.95 211.45 145.15 207.7 120.1 182.65 120.1 147 120.1 111.4 145.15 86.15 170.45 61.05 206.05 61.05 Z"/>
</g>

<g id="Layer0_0_FILL">
<path fill="#FFFFFF" stroke="none" d="
M 222.25 301.7
L 312.35 301.7 258.55 296.1
Q 234.6 293 222.25 301.7
M 357.35 288.9
Q 345.95 288.1 330.4 291.25 320.3 293.35 308.6 297.05 308.05 297.2 307.5 297.4 308.05 297.2 308.6 297.05 320.3 293.35 330.4 291.25 345.3 284.9 357.65 272.55 383.1 247.1 383.1 211.1 383.1 175.05 357.65 149.6 332.2 124.15 296.15 124.15 294.55 124.15 293 124.35 290.8 124.35 288.8 124.55 281.05 125.15 274.1 126.9 252 132.3 234.7 149.6 209.2 175.05 209.2 211.1 209.2 216.65 209.8 222 210.4 227.4 211.8 232.55 212.2 234.95 213 237.35 218.95 256.85 234.7 272.55 247.2 285.1 262.35 291.45 272.7 293.25 285.3 297.05 286.75 297.5 288.2 297.95 286.75 297.5 285.3 297.05 272.7 293.25 262.35 291.45 238.85 287.45 225.4 292.8 224.95 292.95 224.6 293.1 223.05 293.75 221.65 294.55 219.75 295.6 218.1 296.9 218 296.95 217.9 297.05 215.3 299.1 213.4 301.7
L 222.25 301.7
Q 234.6 293 258.55 296.1
L 312.35 301.7
Q 340.45 294.9 357.35 295.25
L 357.35 288.9 Z"/>
</g>

<path id="Layer1_1_1_STROKES" stroke="#000000" stroke-opacity="0.00392156862745098" stroke-width="2" stroke-linejoin="round" stroke-linecap="round" fill="none" d="
M 288.8 124.55
Q 290.8 124.35 293 124.35 294.55 124.15 296.15 124.15 332.2 124.15 357.65 149.6 383.1 175.05 383.1 211.1 383.1 247.1 357.65 272.55 332.2 298 296.35 298
L 296.15 298
Q 294.35 298 292.65 297.95
M 211.8 232.55
Q 210.4 227.4 209.8 222 209.2 216.65 209.2 211.1 209.2 175.05 234.7 149.6 252 132.3 274.1 126.9 281.05 125.15 288.8 124.55
M 211.8 232.55
Q 212.2 234.95 213 237.35 218.95 256.85 234.7 272.55 253.2 291.05 277.05 296.05 282.85 297.2 288.8 297.8 290.7 297.9 292.65 297.95"/>

<path id="Layer1_1_2_STROKES" stroke="#FFFFFF" stroke-width="18" stroke-linejoin="round" stroke-linecap="round" fill="none" d="
M 292.65 297.95
Q 263.3 369.35 212.2 369.8 171.45 362.4 148.4 334.25 125.6 306.4 120.5 258.8 122.7 219.05 169.85 225.2 160.9 221 152.9 214.65
M 236.7 66.45
Q 253.2 72.6 266.7 86.15 281.65 101.05 287.8 119.95
L 288.8 124.55 291.2 137.05
M 152.9 214.65
Q 148.95 211.45 145.15 207.7 120.1 182.65 120.1 147 120.1 111.4 145.15 86.15 170.45 61.05 206.05 61.05 222.55 61.05 236.7 66.45
M 211.8 232.55
L 207.85 232.95
Q 207.05 232.95 206.05 232.95 204.65 232.95 203.25 232.95
L 201.45 232.95
Q 184.35 231.95 169.85 225.2
M 233.5 230
L 211.8 232.55
M 292.65 297.95
Q 294.3 293.8 295.95 289.4
M 217.6 232.95
Q 298.55 231.35 298.55 258.8 300.15 278.9 296.35 298"/>

<path id="Layer0_0_1_STROKES" stroke="#FFFFFF" stroke-width="2" stroke-linejoin="round" stroke-linecap="round" fill="none" d="
M 357.35 288.9
Q 345.95 288.1 330.4 291.25 320.3 293.35 308.6 297.05 308.05 297.2 307.5 297.4
M 262.35 291.45
Q 238.85 287.45 225.4 292.8 224.95 292.95 224.6 293.1 223.05 293.75 221.65 294.55 219.75 295.6 218.1 296.9 218 296.95 217.9 297.05 215.3 299.1 213.4 301.7
M 288.2 297.95
Q 286.75 297.5 285.3 297.05 272.7 293.25 262.35 291.45"/>

<path id="Layer0_0_2_STROKES" stroke="#FFFFFF" stroke-width="18" stroke-linejoin="round" stroke-linecap="round" fill="none" d="
M 357.35 295.25
Q 340.45 294.9 312.35 301.7
M 222.25 301.7
Q 210.3 310.15 209.2 329.7 214.3 377.3 237.1 405.15 260.15 433.3 300.9 440.7 302.75 440.7 304.55 440.6 305.05 440.55 305.6 440.5 321.55 437.5 334.75 431.3 362.5 414.65 381.35 368.85 383.65 363 385.1 357.05
M 346.9 296.1
Q 370.85 293 383.2 301.7 395.15 310.15 396.25 329.7 391.15 377.3 368.35 405.15 354.65 421.85 334.75 431.3 321.2 439.35 305.6 440.5
M 222.25 301.7
Q 234.6 293 258.55 296.1
L 312.35 301.7"/>
</defs>

<g transform="matrix( 1, 0, 0, 1, 204,200) ">
<use xlink:href="#Chat_Bubble_Logo_Minimal_White_Transparent_png"/>
</g>

<g transform="matrix( 1, 0, 0, 1, 0,0) ">
<use xlink:href="#Layer1_0_FILL"/>
</g>

<g transform="matrix( 1, 0, 0, 1, 0,0) ">
<use xlink:href="#Layer1_1_FILL"/>

<use xlink:href="#Layer1_1_1_STROKES"/>

<use xlink:href="#Layer1_1_2_STROKES"/>
</g>

<g transform="matrix( 1, 0, 0, 1, 0,0) ">
<use xlink:href="#Layer0_0_FILL"/>

<use xlink:href="#Layer0_0_1_STROKES"/>

<use xlink:href="#Layer0_0_2_STROKES"/>
</g>
</svg>
