
<svg xmlns="http://www.w3.org/2000/svg" version="1.1" xmlns:xlink="http://www.w3.org/1999/xlink" preserveAspectRatio="none" x="0px" y="0px" width="500px" height="500px" viewBox="0 0 500 500">
<defs>
<g id="Layer0_0_FILL">
<path fill="#FFFFFF" fill-opacity="0" stroke="none" d="
M 408.05 187.7
Q 408.05 149.953125 383.05 122.55 355.2197265625 96.25 316.5 96.25 276.2 96.25 247.7 124.75 219.2 153.25 219.2 193.55 219.2 231.2962890625 244.2 258.7 272.0296875 285 310.75 285 351.05 285 379.55 256.5 408.05 228 408.05 187.7
M 383.05 122.55
Q 381.3556640625 120.7056640625 379.55 118.9 351.05 90.4 310.75 90.4 270.45 90.4 241.95 118.9 213.45 147.4 213.45 187.7 213.45 228 241.95 256.5 243.0671875 257.6171875 244.2 258.7 219.2 231.2962890625 219.2 193.55 219.2 153.25 247.7 124.75 276.2 96.25 316.5 96.25 355.2197265625 96.25 383.05 122.55 Z"/>
</g>

<path id="Layer0_0_1_STROKES" stroke="#FFFFFF" stroke-width="40" stroke-linejoin="round" stroke-linecap="round" fill="none" d="
M 99.2 409.3
L 246.1 266.15"/>

<path id="Layer0_0_2_STROKES" stroke="#FFFFFF" stroke-width="34" stroke-linejoin="round" stroke-linecap="round" fill="none" d="
M 383.05 122.55
Q 384.182421875 123.632421875 385.3 124.75 413.8 153.25 413.8 193.55 413.8 233.85 385.3 262.35 356.8 290.85 316.5 290.85 276.2 290.85 247.7 262.35 245.8939453125 260.5439453125 244.2 258.7 219.2 231.2962890625 219.2 193.55 219.2 153.25 247.7 124.75 276.2 96.25 316.5 96.25 355.2197265625 96.25 383.05 122.55 Z"/>
</defs>

<g transform="matrix( 1, 0, 0, 1, 0,0) ">
<use xlink:href="#Layer0_0_FILL"/>

<use xlink:href="#Layer0_0_1_STROKES"/>

<use xlink:href="#Layer0_0_2_STROKES"/>
</g>
</svg>
