
<svg xmlns="http://www.w3.org/2000/svg" version="1.1" xmlns:xlink="http://www.w3.org/1999/xlink" preserveAspectRatio="none" x="0px" y="0px" width="500px" height="500px" viewBox="0 0 500 500">
<defs>
<g id="Layer0_0_FILL">
<path fill="#FFFFFF" stroke="none" d="
M 158 182.2
L 134.5 182.2 132.15 198.65 107.7 209.25 102.75 204.6 92.25 196.6 75.6 214.35 84.85 227.6 75.4 253.5 60.15 256.2 60.15 281.2 75.6 283.65 86.7 308.65 75.6 324.85 92.25 342.5 109.8 329.15 132.15 338.95 134.7 355.1 158.25 355.1 160.55 338.65 183.2 328 202.05 342.5 218.7 324.85 209.4 311.55 220.65 283.65 235.95 280.95 235.95 255.95 220.45 253.5 211.5 229.7 220.45 216.35 203.8 198.65 186.25 212.9 160.55 198.45 158 182.2
M 119.85 295.05
Q 108.65 283.85 108.65 267.95 108.65 252.1 119.85 240.8 131.1 229.6 147 229.6 162.8 229.6 174.05 240.8 185.3 252.1 185.3 267.95 185.3 283.85 174.05 295.05 162.8 306.3 147 306.3 131.1 306.3 119.85 295.05
M 330 380.95
L 341.4 379 341.4 360.25 329.85 358.35 323.1 340.55 329.85 330.5 317.3 317.2 304.15 327.9 284.9 317.05 282.95 304.9 265.3 304.9 263.55 317.2 245.15 325.15 241.45 321.65 233.6 315.65 221.05 328.95 228.05 338.95 220.95 358.35 209.45 360.4 209.45 379.15 221.05 380.95 229.45 399.8 221.05 411.9 233.6 425.2 246.75 415.15 263.55 422.45 265.45 434.65 283.1 434.65 284.9 422.3 301.85 414.3 316 425.2 328.5 411.9 321.5 401.95 330 380.95
M 245.9 369.2
Q 245.9 357.3 254.3 348.85 262.75 340.4 274.65 340.4 286.6 340.4 294.95 348.85 303.4 357.3 303.4 369.2 303.4 381.15 294.95 389.5 286.6 398 274.65 398 262.75 398 254.3 389.5 245.9 381.15 245.9 369.2 Z"/>
</g>

<path id="Layer0_0_1_STROKES" stroke="#FFFFFF" stroke-width="8" stroke-linejoin="round" stroke-linecap="round" fill="none" d="
M 241.45 321.65
L 245.15 325.15 263.55 317.2 265.3 304.9 282.95 304.9 284.9 317.05 304.15 327.9 317.3 317.2 329.85 330.5 323.1 340.55 329.85 358.35 341.4 360.25 341.4 379 330 380.95 321.5 401.95 328.5 411.9 316 425.2 301.85 414.3 284.9 422.3 283.1 434.65 265.45 434.65 263.55 422.45 246.75 415.15 233.6 425.2 221.05 411.9 229.45 399.8 221.05 380.95 209.45 379.15 209.45 360.4 220.95 358.35 228.05 338.95 221.05 328.95 233.6 315.65 241.45 321.65 Z
M 102.75 204.6
L 107.7 209.25 132.15 198.65 134.5 182.2 158 182.2 160.55 198.45 186.25 212.9 203.8 198.65 220.45 216.35 211.5 229.7 220.45 253.5 235.95 255.95 235.95 280.95 220.65 283.65 209.4 311.55 218.7 324.85 202.05 342.5 183.2 328 160.55 338.65 158.25 355.1 134.7 355.1 132.15 338.95 109.8 329.15 92.25 342.5 75.6 324.85 86.7 308.65 75.6 283.65 60.15 281.2 60.15 256.2 75.4 253.5 84.85 227.6 75.6 214.35 92.25 196.6 102.75 204.6 Z
M 185.3 267.95
Q 185.3 283.85 174.05 295.05 162.8 306.3 147 306.3 131.1 306.3 119.85 295.05 108.65 283.85 108.65 267.95 108.65 252.1 119.85 240.8 131.1 229.6 147 229.6 162.8 229.6 174.05 240.8 185.3 252.1 185.3 267.95 Z
M 303.4 369.2
Q 303.4 381.15 294.95 389.5 286.6 398 274.65 398 262.75 398 254.3 389.5 245.9 381.15 245.9 369.2 245.9 357.3 254.3 348.85 262.75 340.4 274.65 340.4 286.6 340.4 294.95 348.85 303.4 357.3 303.4 369.2 Z"/>

<path id="Layer0_0_2_STROKES" stroke="#FFFFFF" stroke-width="12" stroke-linejoin="round" stroke-linecap="round" fill="none" d="
M 276.65 99.8
L 274.25 98 280.1 103.45 309.1 90.95 311.85 71.45 339.7 71.45 342.75 90.65 373.2 107.8 394.05 90.95 413.8 111.9 403.15 127.7 413.8 155.9 432.1 158.85 432.1 188.45 414 191.65 400.65 224.75 411.7 240.55 391.95 261.5 369.6 244.3 342.75 256.9 340 276.4 312.05 276.4 309.1 257.2 282.6 245.65 276.6 249.8 261.75 261.5 242 240.55 255.2 221.35 242 191.65 223.7 188.75 223.7 159.1 241.8 155.9 253.05 125.25 242 109.45 261.75 88.5 274.25 98
M 372.1 175
Q 372.1 193.85 358.75 207.1 345.45 220.45 326.65 220.45 307.8 220.45 294.5 207.1 281.2 193.85 281.2 175 281.2 156.2 294.5 142.85 307.8 129.55 326.65 129.55 345.45 129.55 358.75 142.85 372.1 156.2 372.1 175 Z"/>
</defs>

<g transform="matrix( 1, 0, 0, 1, 0,0) ">
<use xlink:href="#Layer0_0_FILL"/>

<use xlink:href="#Layer0_0_1_STROKES"/>

<use xlink:href="#Layer0_0_2_STROKES"/>
</g>
</svg>
